<svg width="100" height="100" viewBox="0 0 100 100" fill="none" xmlns="http://www.w3.org/2000/svg">
<path d="M79.5777 30.9305H16.3392C15.1194 30.9305 14.1025 31.9942 14.306 33.1544L21.5249 88.3697C22.0334 92.4311 25.6935 95.4286 29.9635 95.4286H65.8529C70.123 95.4286 73.7831 92.4311 74.2915 88.3697L81.5104 33.1544C81.7132 31.8971 80.7976 30.9305 79.5777 30.9305ZM34.6397 83.5349H34.4362C33.1143 83.5349 31.9959 82.5676 31.8945 81.311L28.7429 45.3389C28.6415 44.0816 29.6577 42.8244 31.0811 42.7278C32.403 42.6314 33.7243 43.598 33.8264 44.9517L36.9779 80.9239C37.0794 82.2776 36.0631 83.4379 34.6397 83.5349ZM50.5 81.1174C50.5 82.4712 49.3816 83.5349 47.9583 83.5349C46.5349 83.5349 45.4165 82.4712 45.4165 81.1174V45.1453C45.4165 43.7915 46.5349 42.7278 47.9583 42.7278C49.3816 42.7278 50.5 43.7915 50.5 45.1453V81.1174ZM64.0221 81.3103C63.9207 82.5676 62.8023 83.5343 61.4804 83.5343H61.2768C59.8535 83.4378 58.8366 82.277 58.9386 80.9232L62.0902 44.9511C62.1916 43.5973 63.4121 42.6301 64.8354 42.7272C66.2588 42.8236 67.2757 43.9845 67.1737 45.3382L64.0221 81.3103Z" fill="#828282"/>
<path d="M34.6397 83.5349H34.4362C33.1143 83.5349 31.9959 82.5676 31.8945 81.311L28.7429 45.3389C28.6415 44.0816 29.6577 42.8244 31.0811 42.7278C32.403 42.6314 33.7243 43.598 33.8264 44.9517L36.9779 80.9239C37.0794 82.2776 36.0631 83.4379 34.6397 83.5349Z" fill="#828282"/>
<path d="M50.5 81.1174C50.5 82.4712 49.3816 83.5349 47.9583 83.5349C46.5349 83.5349 45.4165 82.4712 45.4165 81.1174V45.1453C45.4165 43.7915 46.5349 42.7278 47.9583 42.7278C49.3816 42.7278 50.5 43.7915 50.5 45.1453V81.1174Z" fill="#828282"/>
<path d="M64.0221 81.3103C63.9207 82.5676 62.8023 83.5343 61.4804 83.5343H61.2768C59.8535 83.4378 58.8366 82.277 58.9386 80.9232L62.0902 44.9511C62.1916 43.5973 63.4121 42.6301 64.8354 42.7272C66.2588 42.8236 67.2757 43.9845 67.1737 45.3382L64.0221 81.3103Z" fill="#828282"/>
<path d="M83.7945 22.5021C78.24 18.5904 69.9547 16.2644 60.2575 15.2068C59.0334 8.86283 54.0435 4 48.018 4C41.9926 4 36.9089 8.86378 35.7786 15.2068C26.0813 16.2643 17.7963 18.5904 12.2416 22.5021C9.98183 24.0876 11.0174 28 13.6535 28H82.4759C85.0187 28 85.9598 24.0876 83.7945 22.5021ZM41.2395 14.7842C42.3691 11.9295 44.9113 9.92047 47.9244 9.92047C50.9375 9.92047 53.479 11.9295 54.6093 14.7842C52.444 14.6788 50.1843 14.5726 47.9244 14.5726C45.6645 14.5726 43.4055 14.678 41.2395 14.7842Z" fill="#828282"/>
<path d="M85.586 23.6068C80.0582 20.1403 71.813 18.0791 62.1625 17.1418C60.9443 11.5199 55.9786 7.21045 49.9822 7.21045C43.9858 7.21045 38.9267 11.5207 37.8018 17.1418C28.1514 18.079 19.9063 20.1403 14.3784 23.6068C12.1296 25.012 13.1602 28.4791 15.7836 28.4791H84.2737C86.8042 28.4791 87.7408 25.0119 85.586 23.6068ZM43.2364 16.7674C44.3605 14.2375 46.8905 12.4571 49.889 12.4571C52.8875 12.4571 55.4168 14.2375 56.5416 16.7674C54.3868 16.6739 52.138 16.5798 49.889 16.5798C47.64 16.5798 45.3919 16.6733 43.2364 16.7674Z" fill="#BDBDBD"/>
<path d="M79.0902 32.8089H20.8128C19.6887 32.8089 18.7515 33.8396 18.9391 34.9637L25.5917 88.4628C26.0603 92.3979 29.4333 95.3023 33.3682 95.3023H66.4421C70.3772 95.3023 73.7502 92.3979 74.2187 88.4628L80.8713 34.9637C81.0582 33.7455 80.2144 32.8089 79.0902 32.8089ZM37.6776 83.7783H37.4901C36.2718 83.7783 35.2413 82.8411 35.1477 81.6235L32.2434 46.7694C32.1499 45.5512 33.0865 44.3331 34.3982 44.2395C35.6164 44.1461 36.834 45.0826 36.9281 46.3943L39.8324 81.2484C39.9259 82.56 38.9893 83.6842 37.6776 83.7783ZM52.2937 81.4359C52.2937 82.7476 51.263 83.7783 49.9513 83.7783C48.6397 83.7783 47.609 82.7476 47.609 81.4359V46.5819C47.609 45.2702 48.6397 44.2395 49.9513 44.2395C51.263 44.2395 52.2937 45.2702 52.2937 46.5819V81.4359ZM64.7549 81.6228C64.6615 82.8411 63.6308 83.7776 62.4126 83.7776H62.225C60.9134 83.6842 59.9762 82.5594 60.0703 81.2477L62.9746 46.3937C63.068 45.082 64.1928 44.1449 65.5045 44.2389C66.8162 44.3324 67.7533 45.4571 67.6593 46.7688L64.7549 81.6228Z" fill="#BDBDBD"/>
</svg>
