<svg width="100" height="100" viewBox="0 0 100 100" fill="none" xmlns="http://www.w3.org/2000/svg">
<path fill-rule="evenodd" clip-rule="evenodd" d="M67.3148 56.2501L75.602 42.4682C76.3066 41.2963 76.3513 39.8425 75.7211 38.6297C75.0909 37.4161 73.8751 36.6179 72.5112 36.5211L55.6517 35.3195L62.8548 7.93282C63.1695 6.73714 62.9039 5.46329 62.1368 4.49301C61.3704 3.52352 60.1918 2.97069 58.956 3.0012C57.7202 3.03171 56.5699 3.64183 55.8518 4.64851L39.1368 28.0714L36.2143 32.1429L26.5549 45.7038C26.0154 46.4605 25.7617 47.3838 25.8384 48.3102C25.9143 49.2366 26.3168 50.1056 26.973 50.7641C27.6293 51.4219 28.4976 51.8259 29.4231 51.9048L48.1054 53.4933L35.6285 93.9085C35.2475 95.1429 35.4968 96.4859 36.2966 97.5007C37.0957 98.5163 38.3427 99.0736 39.6322 98.9925C40.9217 98.9107 42.089 98.2016 42.7543 97.0937L64.7562 60.5032L67.3148 56.2501Z" fill="#DDCB56"/>
<path fill-rule="evenodd" clip-rule="evenodd" d="M65.2041 54.1072L73.4914 40.3253C74.196 39.1535 74.2406 37.6996 73.6104 36.4868C72.9802 35.2733 71.7644 34.475 70.4005 34.3783L53.5411 33.1766L60.7441 5.78997C61.0588 4.59429 60.7932 3.32044 60.0261 2.35016C59.2598 1.38067 58.0812 0.827833 56.8454 0.858347C55.6095 0.888862 54.4593 1.49898 53.7412 2.50566L37.0261 25.9285L34.1036 30L24.4442 43.5609C23.9048 44.3176 23.6511 45.241 23.7277 46.1674C23.8036 47.0937 24.2061 47.9628 24.8624 48.6213C25.5186 49.279 26.3869 49.683 27.3125 49.7619L45.9947 51.3504L33.5178 91.7657C33.1368 93.0001 33.3861 94.343 34.1859 95.3579C34.9851 96.3735 36.232 96.9308 37.5216 96.8497C38.811 96.7678 39.9783 96.0588 40.6437 94.9509L62.6456 58.3604L65.2041 54.1072Z" fill="#FDEF95"/>
</svg>
