<svg width="100" height="100" viewBox="0 0 100 100" fill="none" xmlns="http://www.w3.org/2000/svg">
<path d="M59.5284 38.5701C59.5467 38.5145 60.1607 36.6391 60.1037 35.444C59.9743 33.0506 58.9226 30.626 57.3965 29.2693C55.3374 27.4343 52.0538 26.6842 49.0007 27.355C47.1571 27.754 45.6454 28.6635 44.4354 29.7164C44.5215 27.4352 44.306 24.8022 43.4561 22.0266C42.4768 18.8038 39.9423 12.9328 34.0521 9.91685C29.4152 7.53941 22.0847 6.59787 16.6696 11.7518C13.1558 15.0859 11.2833 20.6068 11.6435 26.5257C11.9602 31.743 14.1207 35.7157 16.3382 38.5073C12.4787 38.5073 8.7198 40.4055 6.37292 43.9159C3.21874 48.6065 3.21874 55.1323 6.31505 60.1097C6.79024 60.8918 7.2799 61.673 7.78403 62.423L27.6443 62.2629C22.7267 55.453 17.4573 52.9224 17.0932 52.7475C17.0819 52.7421 17.0754 52.7389 17.0736 52.738C16.3395 52.4031 15.9793 51.4776 16.2672 50.6643C16.5695 49.835 17.4049 49.436 18.1389 49.7709C18.1437 49.7732 18.15 49.7761 18.158 49.7799C18.6589 50.0148 25.4883 53.2178 31.2295 62.2628L33.5339 62.2629C33.9085 55.4664 33.3899 48.6699 32.036 42.033C30.8259 36.0818 28.9251 30.3062 26.4053 24.8662C26.0451 24.0681 26.3192 23.1114 27.0244 22.7123C27.7448 22.3133 28.6084 22.617 28.9686 23.3983C31.6041 29.0778 33.5774 35.109 34.8589 41.331C36.2562 48.1915 36.7886 55.2108 36.4284 62.2623L36.4284 62.2629L37.5063 62.3031C38.339 44.8553 50.6165 37.7767 59.5284 38.5701Z" fill="#4FAB73"/>
<path d="M16.2672 50.6643C15.9793 51.4776 16.3395 52.4031 17.0736 52.738C17.0754 52.7389 17.0819 52.7421 17.0932 52.7475C17.4573 52.9224 22.7267 55.453 27.6443 62.2629L31.2295 62.2628C25.4883 53.2178 18.6589 50.0148 18.158 49.7799C18.15 49.7761 18.1437 49.7732 18.1389 49.7709C17.4049 49.436 16.5695 49.835 16.2672 50.6643Z" fill="#4FAB73"/>
<path d="M33.5339 62.2629H36.4284L36.4284 62.2623C36.7886 55.2108 36.2562 48.1915 34.8589 41.331C33.5774 35.109 31.6041 29.0778 28.9686 23.3983C28.6084 22.617 27.7448 22.3133 27.0244 22.7123C26.3192 23.1114 26.0451 24.0681 26.4053 24.8662C28.9251 30.3062 30.8259 36.0818 32.036 42.033C33.3899 48.6699 33.9085 55.4664 33.5339 62.2629Z" fill="#4FAB73"/>
<path d="M63.1288 38.8778C63.1471 38.8222 63.7611 36.9468 63.7041 35.7517C63.5746 33.3583 62.523 30.9337 60.9969 29.577C58.9378 27.742 55.6542 26.9919 52.6011 27.6627C50.7575 28.0617 49.2458 28.9712 48.0358 30.0241C48.1219 27.7429 47.9063 25.1099 47.0565 22.3343C46.0772 19.1115 43.5427 13.2405 37.6525 10.2245C33.0155 7.84711 25.6851 6.90557 20.27 12.0595C16.7562 15.3936 14.8837 20.9144 15.2438 26.8334C15.5606 32.0507 17.7211 36.0234 19.9385 38.815C16.0791 38.815 12.3202 40.7132 9.9733 44.2236C6.81912 48.9142 6.81912 55.44 9.91543 60.4174C10.3906 61.1995 10.8803 61.9807 11.3844 62.7307L31.2447 62.5706C26.3271 55.7607 21.0576 53.2301 20.6936 53.0552C20.6823 53.0498 20.6757 53.0466 20.674 53.0457C19.9399 52.7107 19.5797 51.7853 19.8676 50.972C20.1699 50.1427 21.0053 49.7437 21.7393 50.0786C21.7441 50.0809 21.7504 50.0838 21.7584 50.0876C22.2593 50.3225 29.0887 53.5255 34.8298 62.5705L37.1342 62.5706C37.5089 55.7741 36.9903 48.9776 35.6363 42.3407C34.4263 36.3895 32.5255 30.6139 30.0057 25.1739C29.6455 24.3758 29.9196 23.4191 30.6248 23.02C31.3452 22.621 32.2088 22.9247 32.569 23.706C35.2045 29.3855 37.1777 35.4167 38.4592 41.6387C39.8566 48.4992 40.389 55.5185 40.0287 62.57L40.0288 62.5706L41.1066 62.6108C41.9394 45.163 54.2169 38.0844 63.1288 38.8778Z" fill="#58DC99"/>
<path d="M74.548 60.0657H40.1011C40.1011 60.0016 40.0866 59.9544 40.0866 59.8903C40.0577 59.4279 40.0432 58.9488 40.0432 58.4704C40.0432 48.8663 46.4377 40.9046 54.7611 39.5329C55.5965 39.3887 56.4608 39.3254 57.3252 39.3254C66.8586 39.3254 74.6064 47.9088 74.6064 58.4704C74.6064 59.0129 74.5919 59.5393 74.5485 60.0658L74.548 60.0657ZM77.4433 60.0657C77.4722 59.5393 77.4867 58.9968 77.4867 58.4704C77.4867 53.0136 75.7154 48.0201 72.7629 44.1274C72.7629 44.1274 73.0363 44.1114 73.1665 44.1114C81.1015 44.1114 87.5676 51.2589 87.5676 60.0657L77.4433 60.0657Z" fill="#E5851A"/>
<path d="M65.966 38.2884C63.8056 37.1554 61.4296 36.4214 58.9379 36.2148H58.9235C58.9235 36.2148 58.9236 36.2144 58.9239 36.2135C50.0119 35.42 37.7345 42.4987 36.9017 59.9465L40.1011 60.0657C40.1011 60.0016 40.0866 59.9544 40.0866 59.8903C40.0577 59.4279 40.0432 58.9488 40.0432 58.4704C40.0432 48.8663 46.4377 40.9046 54.7611 39.5329C55.5965 39.3887 56.4608 39.3254 57.3252 39.3254C66.8586 39.3254 74.6064 47.9088 74.6064 58.4704C74.6064 59.0129 74.5919 59.5393 74.5485 60.0658L77.4433 60.0657C77.4722 59.5393 77.4867 58.9968 77.4867 58.4704C77.4867 53.0136 75.7154 48.0201 72.7629 44.1274C72.0505 43.2789 71.414 42.5732 70.7858 41.9482C69.3863 40.5561 68.0283 39.5645 65.966 38.2884Z" fill="#E5851A"/>
<path d="M84.6879 45.8349C81.6206 42.7877 77.5882 40.9207 73.1668 40.9207C72.9506 40.9207 72.735 40.9527 72.5188 40.9527L70.7858 41.9482C71.414 42.5732 72.0505 43.2789 72.7629 44.1274C72.7629 44.1274 73.0363 44.1114 73.1665 44.1114C81.1015 44.1114 87.5676 51.2589 87.5676 60.0657L90.449 60.0655C90.449 56.4758 89.5421 53.1416 87.9863 50.2698H88.0007C86.797 48.3215 86.0644 47.3674 84.6879 45.8349Z" fill="#E5851A"/>
<path d="M76.7699 61.7716H42.323C42.323 61.7075 42.3085 61.6602 42.3085 61.5961C42.2796 61.1338 42.2651 60.6546 42.2651 60.1762C42.2651 50.5721 48.6596 42.6105 56.983 41.2388C57.8184 41.0945 58.6827 41.0312 59.5471 41.0312C69.0805 41.0312 76.8283 49.6146 76.8283 60.1763C76.8283 60.7187 76.8138 61.2452 76.7704 61.7716L76.7699 61.7716ZM79.6652 61.7716C79.6941 61.2451 79.7086 60.7027 79.7086 60.1762C79.7086 54.7194 77.9373 49.726 74.9848 45.8332C74.9848 45.8332 75.2582 45.8172 75.3884 45.8172C83.3234 45.8172 89.7895 52.9647 89.7895 61.7715L79.6652 61.7716Z" fill="#FF9E31"/>
<path d="M68.1879 39.9943C66.0275 38.8612 63.6515 38.1273 61.1598 37.9206H61.1454C61.1454 37.9206 61.1455 37.9202 61.1458 37.9193C52.2338 37.1259 39.9564 44.2045 39.1236 61.6523L42.323 61.7716C42.323 61.7075 42.3085 61.6602 42.3085 61.5961C42.2796 61.1338 42.2651 60.6546 42.2651 60.1762C42.2651 50.5721 48.6596 42.6105 56.983 41.2388C57.8184 41.0945 58.6827 41.0312 59.5471 41.0312C69.0805 41.0312 76.8283 49.6146 76.8283 60.1763C76.8283 60.7187 76.8138 61.2452 76.7704 61.7716L79.6652 61.7716C79.6941 61.2451 79.7086 60.7027 79.7086 60.1762C79.7086 54.7194 77.9373 49.726 74.9848 45.8332C74.2724 44.9848 73.6359 44.2791 73.0076 43.6541C71.6082 42.2619 70.2502 41.2704 68.1879 39.9943Z" fill="#FF9E31"/>
<path d="M74.7407 42.6585C74.7407 42.6585 74.7551 42.6425 74.7696 42.6425C77.722 40.7122 79.7089 37.1377 79.7089 33.0536V26.6723C79.7089 25.7949 79.0608 25.0769 78.2688 25.0769C72.7098 25.0769 68.1879 30.0866 68.1879 36.2451V39.9943C70.2502 41.2704 71.6082 42.2619 73.0076 43.6541L74.7407 42.6585Z" fill="#FF9E31"/>
<path d="M86.9098 47.5407C83.8425 44.4936 79.8101 42.6265 75.3887 42.6265C75.1725 42.6265 74.9569 42.6585 74.7407 42.6585L73.0076 43.6541C73.6359 44.2791 74.2724 44.9848 74.9848 45.8332C74.9848 45.8332 75.2582 45.8172 75.3884 45.8172C83.3234 45.8172 89.7895 52.9647 89.7895 61.7715L92.6709 61.7714C92.6709 58.1816 91.764 54.8475 90.2082 51.9757H90.2226C89.0189 50.0274 88.2863 49.0732 86.9098 47.5407Z" fill="#FF9E31"/>
<path d="M96.9908 42.6265V37.8404C96.9908 36.963 96.3428 36.2451 95.5508 36.2451C90.7837 36.2451 86.9098 40.5368 86.9098 45.818V47.5407C88.2863 49.0732 89.0189 50.0274 90.2226 51.9757C94.0972 51.0181 96.9918 47.1888 96.9918 42.6263L96.9908 42.6265Z" fill="#FF9E31"/>
<path d="M74.7 40.6585C74.7 40.6585 74.7145 40.6425 74.7289 40.6425C77.6813 38.7122 79.6682 35.1377 79.6682 31.0536V24.6723C79.6682 23.7949 79.0202 23.0769 78.2282 23.0769C72.6692 23.0769 68.1472 28.0866 68.1472 34.2451V37.9943C70.2096 39.2704 71.5676 40.2619 72.967 41.6541L74.7 40.6585Z" fill="#054E34"/>
<path d="M96.9502 40.6265V35.8404C96.9502 34.963 96.3021 34.2451 95.5102 34.2451C90.7431 34.2451 86.8692 38.5368 86.8692 43.818V45.5407C88.2456 47.0732 88.9782 48.0274 90.182 49.9757C94.0566 49.0181 96.9512 45.1888 96.9512 40.6263L96.9502 40.6265Z" fill="#054E34"/>
<path d="M74.7 42.9662C74.7 42.9662 74.7145 42.9502 74.7289 42.9502C77.6813 41.0199 79.6682 37.4454 79.6682 33.3613V26.98C79.6682 26.1026 79.0202 25.3846 78.2282 25.3846C72.6692 25.3846 68.1472 30.3943 68.1472 36.5528V40.3019C70.2096 41.5781 71.5676 42.5696 72.967 43.9618L74.7 42.9662Z" fill="#4FAB73"/>
<path d="M96.9502 42.9342V38.1481C96.9502 37.2707 96.3021 36.5528 95.5102 36.5528C90.7431 36.5528 86.8692 40.8445 86.8692 46.1257V47.8484C88.2456 49.3809 88.9782 50.3351 90.182 52.2834C94.0566 51.3258 96.9512 47.4965 96.9512 42.934L96.9502 42.9342Z" fill="#4FAB73"/>
<path d="M9.26252 59.4999L6.12427 59.4991C5.70694 59.4991 5.30335 59.7066 5.02995 60.0416C4.75654 60.3925 4.64082 60.8548 4.69868 61.318C6.05265 71.8316 12.7777 78.3356 21.5048 81.5908C20.8994 82.4202 20.5255 83.4738 20.5255 84.622C20.5255 87.2542 22.4696 90.4081 24.8456 90.4081H73.8108C76.1867 90.4081 78.1309 87.2542 78.1309 84.622C78.1309 83.473 77.7562 82.4202 77.1516 81.5908C85.8787 78.3361 92.6044 71.8329 93.9577 61.318C94.0155 60.8557 93.8998 60.3925 93.6264 60.0416C93.353 59.6906 92.9494 59.4991 92.5321 59.4991L89.6506 59.4992L79.5263 59.4993H76.631L29.1228 59.3398L9.26252 59.4999Z" fill="#BDBDBD"/>
<path d="M13.347 59.0751L10.3598 59.0744C9.96261 59.0744 9.57846 59.2715 9.31822 59.5896C9.05799 59.923 8.94784 60.3622 9.00291 60.8021C10.2917 70.789 16.6928 78.867 24.9996 81.959C24.4234 82.7468 24.0674 83.7477 24.0674 84.8384C24.0674 87.3387 25.918 89.3846 28.1795 89.3846H74.7864C77.048 89.3846 78.8985 87.3387 78.8985 84.8384C78.8985 83.7469 78.5419 82.7468 77.9663 81.959C86.2731 78.8673 92.6749 70.7902 93.963 60.8021C94.0181 60.363 93.9079 59.923 93.6477 59.5896C93.3875 59.2563 93.0033 59.0744 92.6061 59.0744L89.8634 59.0745L80.2267 59.0745L77.4714 59.0746L77.4708 59.0745L32.2508 58.9231L13.347 59.0751Z" fill="#437BBD"/>
</svg>
