<svg width="48" height="50" viewBox="0 0 48 50" fill="none" xmlns="http://www.w3.org/2000/svg">
<path d="M6.84871 16.1331C5.74755 18.6501 5.74755 21.4816 5.43293 24.1559C5.11831 27.4594 4.33176 29.819 2.75867 32.8079C0.556349 37.2125 0.241731 41.9318 2.60137 46.3365L2.91598 46.6511C5.11831 48.8534 9.83758 49.7973 12.6691 49.0107C17.5457 47.7522 18.0176 42.5611 18.175 38.3137C18.4896 29.1898 25.4112 29.0325 31.3889 24.4705C35.4789 21.3243 35.007 17.2343 32.1755 13.3016C26.1977 5.43613 10.9387 7.16653 6.84871 16.1331ZM29.5012 23.8413C27.7708 24.9424 25.8831 25.5717 24.1527 26.5155C21.6358 27.9313 19.1188 29.6617 17.703 32.1787C15.658 35.9541 17.5457 40.3587 15.8153 44.1341C13.9276 48.2242 7.16333 48.6961 4.01715 45.3926C1.65751 40.988 2.44406 36.5833 4.80369 32.4933C6.37678 29.819 6.84871 27.1448 7.00602 24.1559C7.47794 18.9647 8.26449 14.4027 13.1411 11.7285C18.0176 9.05424 26.1977 9.36885 30.1304 13.4589C30.7597 14.2454 31.7035 15.3466 32.0181 16.2904C33.7485 20.0659 32.1755 22.1109 29.5012 23.8413Z" fill="#054E34"/>
<path d="M41.2994 8.11038C37.8386 8.73962 35.1643 11.0993 35.007 14.7174C34.6924 18.1782 38.1532 21.4816 41.614 19.7512C43.8163 18.6501 45.8613 15.6612 46.8052 13.3016C48.6929 9.36885 44.9175 7.48115 41.2994 8.11038ZM45.2321 13.3016C44.6029 14.5601 43.659 15.9758 42.5578 17.077C42.0859 17.7062 41.4567 18.3355 40.6701 18.6501C38.1532 19.5939 36.4228 17.077 36.5801 14.8747C36.5801 12.8297 37.8386 11.4139 39.569 10.47C40.8274 9.84078 42.8725 9.21154 44.2882 9.84078C46.3333 10.47 45.8613 12.0431 45.2321 13.3016Z" fill="#054E34"/>
<path d="M30.2877 7.32384C30.917 9.36885 33.1193 10.47 35.1643 10.6273C35.3216 10.6273 35.4789 10.6273 35.6362 10.47C37.2093 9.84078 38.6251 7.95307 38.4678 6.22267C38.3105 4.02035 35.7936 2.44726 33.7485 2.76188C31.7035 3.07649 29.5012 5.12151 30.2877 7.32384ZM34.2205 4.33497C35.4789 4.33497 37.2093 5.59344 36.7374 7.00922C36.4228 7.79576 35.7936 8.58231 35.007 9.05424C33.7485 8.89693 32.6474 8.425 32.0181 7.32384C31.0743 5.75075 32.8047 4.33497 34.2205 4.33497Z" fill="#054E34"/>
<path d="M24.6246 6.53729C25.7258 6.6946 26.6696 6.85191 27.7708 6.85191H28.0854C29.5012 6.06537 30.4451 3.2338 29.9731 1.66071C29.3439 -0.541612 25.7258 0.559551 24.4673 1.5034C23.3662 2.28995 21.9504 4.17766 22.5796 5.59344C23.0515 6.22267 23.9954 6.37998 24.6246 6.53729ZM25.0966 2.91919C25.5685 2.44726 26.1977 2.13264 26.827 1.97533C27.1416 1.81802 27.6135 1.81802 28.0854 1.81802H28.7147C28.872 2.60457 28.4 4.49228 27.6135 5.12151C26.5123 5.12151 25.0966 5.12151 24.1527 4.64958C24.1527 4.49228 24.1527 4.33497 24.31 4.17766C24.31 3.86304 24.7819 3.39111 25.0966 2.91919Z" fill="#054E34"/>
<path d="M21.3211 5.27882C21.4784 5.27882 21.4784 5.27882 21.3211 5.27882C21.4784 5.12151 21.4784 5.12151 21.4784 4.9642C21.9504 3.39111 22.1077 1.5034 20.5346 0.559551C19.2761 -0.069685 17.8603 0.402242 16.9165 1.3461C15.8153 2.44726 14.7142 4.80689 16.1299 6.22267C17.703 7.32384 20.3773 6.6946 21.3211 5.27882ZM18.4896 2.13264C18.9615 1.81802 19.4334 1.66071 19.9054 1.97533C20.6919 2.44726 20.3773 3.54842 20.22 4.33497C19.5907 4.9642 18.0176 5.59344 17.3884 4.9642C16.6019 4.17766 17.8603 2.60457 18.4896 2.13264Z" fill="#054E34"/>
<path d="M14.2422 8.11038C14.3995 8.11038 14.5569 7.95307 14.7142 7.79576C14.8715 7.63846 14.8715 7.48115 14.8715 7.32384C15.0288 5.43613 13.2984 2.13264 11.2534 4.02035C10.4668 4.64958 9.20834 6.6946 9.99489 7.79576C10.9387 8.89693 12.9838 8.73962 14.2422 8.11038ZM11.7253 5.90806C11.8826 5.59344 12.1972 5.27882 12.5118 5.12151L12.6691 5.27882C12.8265 5.27882 12.9838 5.43613 12.9838 5.75075C13.1411 6.06537 13.2984 6.37998 13.2984 6.85191C12.9838 6.85191 12.6691 7.00922 12.3545 7.00922C12.1972 7.00922 11.4107 6.85191 11.2534 6.85191C11.2534 6.6946 11.7253 6.06537 11.7253 5.90806Z" fill="#054E34"/>
<path d="M29.5012 23.8413C27.7708 24.9424 25.8831 25.5717 24.1527 26.5155C21.6358 27.9313 19.1188 29.6617 17.703 32.1787C15.658 35.9541 17.5457 40.3587 15.8153 44.1341C13.9276 48.2242 7.16333 48.6961 4.01715 45.3926C1.65751 40.988 2.44406 36.5833 4.80369 32.4933C6.37678 29.819 6.84871 27.1448 7.00602 24.1559C7.47794 18.9647 8.26449 14.4027 13.1411 11.7285C18.0176 9.05424 26.1977 9.36885 30.1304 13.4589C30.7597 14.2454 31.7035 15.3466 32.0181 16.2904C33.7485 20.0659 32.1755 22.1109 29.5012 23.8413Z" fill="#054E34"/>
<path d="M45.2321 13.3016C44.6029 14.5601 43.659 15.9758 42.5578 17.077C42.0859 17.7062 41.4567 18.3355 40.6701 18.6501C38.1532 19.5939 36.4228 17.077 36.5801 14.8747C36.5801 12.8297 37.8386 11.4139 39.569 10.47C40.8274 9.84078 42.8725 9.21154 44.2882 9.84078C46.3333 10.47 45.8613 12.0431 45.2321 13.3016Z" fill="#054E34"/>
<path d="M34.2205 4.33497C35.4789 4.33497 37.2093 5.59344 36.7374 7.00922C36.4228 7.79576 35.7936 8.58231 35.007 9.05424C33.7485 8.89693 32.6474 8.425 32.0181 7.32384C31.0743 5.75075 32.8047 4.33497 34.2205 4.33497Z" fill="#054E34"/>
<path d="M25.0966 2.91919C25.5685 2.44726 26.1977 2.13264 26.827 1.97533C27.1416 1.81802 27.6135 1.81802 28.0854 1.81802H28.7147C28.872 2.60457 28.4 4.49228 27.6135 5.12151C26.5123 5.12151 25.0966 5.12151 24.1527 4.64958C24.1527 4.49228 24.1527 4.33497 24.31 4.17766C24.31 3.86304 24.7819 3.39111 25.0966 2.91919Z" fill="#054E34"/>
<path d="M18.4896 2.13264C18.9615 1.81802 19.4334 1.66071 19.9054 1.97533C20.6919 2.44726 20.3773 3.54842 20.22 4.33497C19.5907 4.9642 18.0176 5.59344 17.3884 4.9642C16.6019 4.17766 17.8603 2.60457 18.4896 2.13264Z" fill="#054E34"/>
<path d="M11.7253 5.90806C11.8826 5.59344 12.1972 5.27882 12.5118 5.12151L12.6691 5.27882C12.8265 5.27882 12.9838 5.43613 12.9838 5.75075C13.1411 6.06537 13.2984 6.37998 13.2984 6.85191C12.9838 6.85191 12.6691 7.00922 12.3545 7.00922C12.1972 7.00922 11.4107 6.85191 11.2534 6.85191C11.2534 6.6946 11.7253 6.06537 11.7253 5.90806Z" fill="#054E34"/>
</svg>
