<svg width="100" height="100" viewBox="0 0 100 100" fill="none" xmlns="http://www.w3.org/2000/svg">
<path d="M86.6781 38.0705C82.8381 20.8971 67.4781 8.09714 49.2381 8.09714C30.9981 8.09714 15.6381 20.8969 11.7981 38.0705C8.27809 38.0705 5.50495 40.9507 5.50495 44.4709L5.5042 56.5236C5.5042 59.7238 7.85087 62.2832 10.8375 62.8168V74.1232C10.8375 77.6432 12.5444 80.7364 15.1038 82.763V88.7362C15.1038 91.8291 17.664 94.3895 20.7572 94.3895H24.4909C27.5838 94.3895 30.1442 91.8293 30.1442 88.7362V85.0025H68.2242V88.7362C68.2242 91.8291 70.7844 94.3895 73.8775 94.3895H77.6113C80.7042 94.3895 83.2646 91.8293 83.2646 88.7362V82.763C85.8248 80.7362 87.5309 77.6432 87.5309 74.1232V62.7103C90.5175 62.1768 92.8642 59.6173 92.8642 56.4171V44.4699C92.9714 40.9499 90.1975 38.0703 86.6775 38.0703L86.6781 38.0705ZM8.27809 56.5236V44.4701C8.27809 42.6569 9.55786 41.1636 11.2648 40.9501C10.9448 42.6569 10.8377 44.5773 10.8377 46.4969V59.9368C9.34438 59.5104 8.27805 58.1235 8.27805 56.5238L8.27809 56.5236ZM27.3714 88.6303C27.3714 90.23 26.0917 91.5105 24.4912 91.5105H20.7575C19.1578 91.5105 17.8773 90.2307 17.8773 88.6303V84.1503C19.0507 84.5766 20.3305 84.8973 21.611 84.8973H27.3707L27.3714 88.6303ZM80.5981 88.6303C80.5981 90.23 79.3183 91.5105 77.7179 91.5105H73.9842C72.3845 91.5105 71.104 90.2307 71.104 88.6303V84.8966H76.8636C78.1434 84.8966 79.4238 84.683 80.5973 84.1495L80.5981 88.6303ZM84.8644 74.1236C84.8644 78.6036 81.2379 82.1236 76.8644 82.1236H21.611C17.131 82.1236 13.611 78.4971 13.611 74.1236V46.4969C13.611 26.8703 29.611 10.8703 49.2377 10.8703C68.8644 10.8703 84.8644 26.8703 84.8644 46.4969V74.1236ZM90.1977 56.524C90.1977 58.1237 89.1307 59.5107 87.6375 59.9377L87.6383 46.4973C87.6383 44.5777 87.5319 42.7636 87.2119 40.844C88.9188 41.1639 90.1986 42.5508 90.1986 44.364L90.1977 56.524Z" fill="#333333"/>
<path d="M84.8644 74.1236C84.8644 78.6036 81.2379 82.1236 76.8644 82.1236H21.611C17.131 82.1236 13.611 78.4971 13.611 74.1236V46.4969C13.611 26.8703 29.611 10.8703 49.2377 10.8703C68.8644 10.8703 84.8644 26.8703 84.8644 46.4969V74.1236Z" fill="#333333"/>
<path d="M8.27809 56.5236V44.4701C8.27809 42.6569 9.55786 41.1636 11.2648 40.9501C10.9448 42.6569 10.8377 44.5773 10.8377 46.4969V59.9368C9.34438 59.5104 8.27805 58.1235 8.27805 56.5238L8.27809 56.5236Z" fill="#333333"/>
<path d="M90.1977 56.524C90.1977 58.1237 89.1307 59.5107 87.6375 59.9377L87.6383 46.4973C87.6383 44.5777 87.5319 42.7636 87.2119 40.844C88.9188 41.1639 90.1986 42.5508 90.1986 44.364L90.1977 56.524Z" fill="#333333"/>
<path d="M80.5981 88.6303C80.5981 90.23 79.3183 91.5105 77.7179 91.5105H73.9842C72.3845 91.5105 71.104 90.2307 71.104 88.6303V84.8966H76.8636C78.1434 84.8966 79.4238 84.683 80.5973 84.1495L80.5981 88.6303Z" fill="#333333"/>
<path d="M27.3714 88.6303C27.3714 90.23 26.0917 91.5105 24.4912 91.5105H20.7575C19.1578 91.5105 17.8773 90.2307 17.8773 88.6303V84.1503C19.0507 84.5766 20.3305 84.8973 21.611 84.8973H27.3707L27.3714 88.6303Z" fill="#333333"/>
<path d="M86.5092 74.0149C86.5092 78.717 82.791 82.4116 78.3069 82.4116H21.6569C17.0636 82.4116 13.4546 78.6053 13.4546 74.0149V45.0183C13.4546 24.4184 29.8591 7.62495 49.9819 7.62495C70.1047 7.62495 86.5092 24.4184 86.5092 45.0183V59.5166V74.0149Z" fill="#DDCB56"/>
<path fill-rule="evenodd" clip-rule="evenodd" d="M49.9823 4.71429C68.6833 4.71429 84.4315 18.1489 88.3687 36.1737L88.3687 36.1739L88.916 39.085C89.2441 41.0998 89.3532 43.0039 89.3532 45.0187L89.3524 59.1255L89.243 62.0356V74.0145C89.243 77.709 87.4938 80.9554 84.8689 83.0827L82.1342 84.538C80.931 85.0979 79.6183 85.322 78.3061 85.322H72.4009L69.4483 85.4332H30.4057L27.5621 85.3228H21.6569C20.3439 85.3228 19.0318 84.9862 17.8288 84.5387L14.9851 83.0827C12.361 80.9556 10.611 77.709 10.611 74.0145V62.1473L10.6111 59.1245V45.0183C10.6111 43.0035 10.721 40.9878 11.049 39.1964L11.5958 36.1739C15.5329 18.1488 31.2812 4.71429 49.9823 4.71429ZM86.5092 74.0149C86.5092 78.717 82.791 82.4116 78.3069 82.4116H21.6569C17.0636 82.4116 13.4546 78.6053 13.4546 74.0149V45.0183C13.4546 24.4184 29.8591 7.62495 49.9819 7.62495C70.1047 7.62495 86.5092 24.4184 86.5092 45.0183V59.5166V74.0149Z" fill="#DDCB56"/>
<path d="M84.8644 74.1236C84.8644 78.6036 81.2379 82.1236 76.8644 82.1236H21.611C17.131 82.1236 13.611 78.4971 13.611 74.1236V46.4969C13.611 26.8703 29.611 10.8703 49.2377 10.8703C68.8644 10.8703 84.8644 26.8703 84.8644 46.4969V60.3103V74.1236Z" fill="#F6DC32"/>
<path fill-rule="evenodd" clip-rule="evenodd" d="M49.2381 8.09714C67.478 8.09714 82.838 20.8972 86.6781 38.0705L87.2119 40.844C87.5319 42.7636 87.6383 44.5777 87.6383 46.4973L87.6375 59.9377L87.5309 62.7103V74.1232C87.5309 77.6432 85.8248 80.7362 83.2646 82.763L80.5973 84.1495C79.4238 84.683 78.1434 84.8966 76.8636 84.8966H71.104L68.2242 85.0025H30.1442L27.3707 84.8973H21.611C20.3305 84.8973 19.0507 84.5766 17.8773 84.1503L15.1038 82.763C12.5444 80.7364 10.8375 77.6432 10.8375 74.1232V62.8168L10.8377 59.9368V46.4969C10.8377 44.5773 10.9448 42.6569 11.2648 40.9501L11.7981 38.0705C15.6381 20.8969 30.9981 8.09714 49.2381 8.09714ZM84.8644 74.1236C84.8644 78.6036 81.2379 82.1236 76.8644 82.1236H21.611C17.131 82.1236 13.611 78.4971 13.611 74.1236V46.4969C13.611 26.8703 29.611 10.8703 49.2377 10.8703C68.8644 10.8703 84.8644 26.8703 84.8644 46.4969V60.3103V74.1236Z" fill="#F6DC32"/>
<path d="M25.8781 63.0305C21.8246 63.0305 18.6251 66.337 18.6251 70.2834C18.6251 74.2299 21.9316 77.5364 25.8781 77.5364C29.8246 77.5364 33.131 74.2299 33.131 70.2834C33.1318 66.337 29.8246 63.0305 25.8781 63.0305ZM25.8781 74.8705C23.425 74.8705 21.3981 72.8436 21.3981 70.3905C21.3981 67.9373 23.425 65.9105 25.8781 65.9105C28.3312 65.9105 30.3581 67.9373 30.3581 70.3905C30.3581 72.8436 28.3312 74.8705 25.8781 74.8705Z" fill="#333333"/>
<path d="M25.8781 74.8705C23.425 74.8705 21.3981 72.8436 21.3981 70.3905C21.3981 67.9373 23.425 65.9105 25.8781 65.9105C28.3312 65.9105 30.3581 67.9373 30.3581 70.3905C30.3581 72.8436 28.3312 74.8705 25.8781 74.8705Z" fill="#333333"/>
<path d="M25.8781 74.8705C23.425 74.8705 21.3981 72.8436 21.3981 70.3905C21.3981 67.9373 23.425 65.9105 25.8781 65.9105C28.3312 65.9105 30.3581 67.9373 30.3581 70.3905C30.3581 72.8436 28.3312 74.8705 25.8781 74.8705Z" fill="#437BBD"/>
<path d="M72.5981 63.0305C68.5446 63.0305 65.3451 66.337 65.3451 70.2834C65.3451 74.2299 68.6516 77.5364 72.5981 77.5364C76.5446 77.5364 79.851 74.2299 79.851 70.2834C79.851 66.337 76.6516 63.0305 72.5981 63.0305ZM72.5981 74.8705C70.1449 74.8705 68.1181 72.8436 68.1181 70.3905C68.1181 67.9373 70.1449 65.9105 72.5981 65.9105C75.0512 65.9105 77.0781 67.9373 77.0781 70.3905C77.0781 72.8436 75.0512 74.8705 72.5981 74.8705Z" fill="#333333"/>
<path d="M72.5981 74.8705C70.1449 74.8705 68.1181 72.8436 68.1181 70.3905C68.1181 67.9373 70.1449 65.9105 72.5981 65.9105C75.0512 65.9105 77.0781 67.9373 77.0781 70.3905C77.0781 72.8436 75.0512 74.8705 72.5981 74.8705Z" fill="#333333"/>
<path d="M72.5981 74.8705C70.1449 74.8705 68.1181 72.8436 68.1181 70.3905C68.1181 67.9373 70.1449 65.9105 72.5981 65.9105C75.0512 65.9105 77.0781 67.9373 77.0781 70.3905C77.0781 72.8436 75.0512 74.8705 72.5981 74.8705Z" fill="#437BBD"/>
<path d="M57.1314 68.8972H41.3442C40.5972 68.8972 39.9573 69.537 39.9573 70.2841C39.9573 71.0311 40.5972 71.6709 41.3442 71.6709H57.2377C57.9847 71.6709 58.6246 71.0311 58.6246 70.2841C58.6246 69.537 57.9848 68.8972 57.1314 68.8972Z" fill="#333333"/>
<path d="M49.4514 15.0305H49.1315C31.5319 15.0305 17.1315 29.4309 17.1315 47.0305C17.1315 50.977 20.3317 54.1772 24.2782 54.1772H74.3048C78.2513 54.1772 81.4515 50.977 81.4515 47.0305C81.4515 29.3236 67.051 15.0305 49.4514 15.0305ZM74.3048 51.2972H61.505L70.6783 48.844C71.4253 48.6305 71.8517 47.8842 71.6381 47.1372C71.4246 46.3901 70.6783 45.9638 69.9313 46.1773L50.6246 51.2972H41.9848L51.1581 48.844C51.9052 48.6305 52.3315 47.8842 52.118 47.1372C51.9044 46.3902 51.1581 45.9638 50.4111 46.1773L31.1045 51.2972H23.9578C21.6111 51.2972 19.5843 49.3775 19.5843 46.9236C19.5843 30.8172 32.7041 17.697 48.8109 17.697H49.1309C65.2374 17.697 78.3575 30.8168 78.3575 46.9236C78.6767 49.3775 76.6507 51.2972 74.304 51.2972H74.3048Z" fill="#437BBD"/>
<path d="M74.304 51.2972H61.505L70.6783 48.844C71.4253 48.6305 71.8517 47.8842 71.6381 47.1372C71.4246 46.3901 70.6783 45.9638 69.9313 46.1773L50.6246 51.2972H41.9848L51.1581 48.844C51.9052 48.6305 52.3315 47.8842 52.118 47.1372C51.9044 46.3902 51.1581 45.9638 50.4111 46.1773L31.1045 51.2972H23.9578C21.6111 51.2972 19.5843 49.3775 19.5843 46.9236C19.5843 30.8172 32.7041 17.697 48.8109 17.697H49.1309C65.2374 17.697 78.3575 30.8168 78.3575 46.9236C78.6767 49.3775 76.6507 51.2972 74.304 51.2972Z" fill="#437BBD"/>
<path d="M49.4514 15.0305H49.1315C31.5319 15.0305 17.1315 29.4309 17.1315 47.0305C17.1315 50.977 20.3317 54.1772 24.2782 54.1772H74.3048C78.2513 54.1772 81.4515 50.977 81.4515 47.0305C81.4515 29.3236 67.051 15.0305 49.4514 15.0305ZM74.3048 51.2972H61.505L70.6783 48.844C71.4253 48.6305 71.8517 47.8842 71.6381 47.1372C71.4246 46.3901 70.6783 45.9638 69.9313 46.1773L50.6246 51.2972H41.9848L51.1581 48.844C51.9052 48.6305 52.3315 47.8842 52.118 47.1372C51.9044 46.3902 51.1581 45.9638 50.4111 46.1773L31.1045 51.2972H23.9578C21.6111 51.2972 19.5843 49.3775 19.5843 46.9236C19.5843 30.8172 32.7041 17.697 48.8109 17.697H49.1309C65.2374 17.697 78.3575 30.8168 78.3575 46.9236C78.6767 49.3775 76.6507 51.2972 74.304 51.2972H74.3048Z" fill="#333333"/>
<path d="M57.2381 22.7105H41.2381C38.9977 22.7105 37.1846 24.5237 37.1846 26.764C37.1846 29.0043 38.9978 30.8175 41.2381 30.8175H57.2381C59.4785 30.8175 61.2916 29.0043 61.2916 26.764C61.2916 24.5237 59.4784 22.7105 57.2381 22.7105Z" fill="#DDCB56"/>
<path d="M74.0336 72.7993L70.5301 69.1249C70.3643 68.951 70.0392 68.9767 69.8255 69.1805C69.6117 69.3843 69.5706 69.7079 69.7364 69.8817L73.2634 73.5809C73.4292 73.7548 73.7543 73.7291 73.9681 73.5253C74.1819 73.3214 74.223 72.998 74.0336 72.7993Z" fill="#7F9DC1"/>
<path d="M74.6345 71.0874L72.2764 68.6142C72.1648 68.4972 71.8861 68.5715 71.6723 68.7754C71.4586 68.9792 71.371 69.254 71.4826 69.371L73.8566 71.8609C73.9682 71.9779 74.2469 71.9035 74.4607 71.6997C74.6744 71.4959 74.762 71.2211 74.6345 71.0874Z" fill="#7F9DC1"/>
<path d="M75.2354 69.3755L74.0227 68.1036C73.9653 68.0434 73.733 68.1664 73.5193 68.3703C73.3055 68.5741 73.1716 68.8002 73.2289 68.8604L74.4498 70.1409C74.5072 70.2011 74.7395 70.078 74.9533 69.8742C75.167 69.6704 75.301 69.4443 75.2354 69.3755Z" fill="#7F9DC1"/>
<path d="M26.4622 73.2279L22.9587 69.5534C22.7929 69.3796 22.4678 69.4052 22.254 69.6091C22.0403 69.8129 21.9992 70.1364 22.1649 70.3103L25.692 74.0094C25.8578 74.1833 26.1829 74.1576 26.3967 73.9538C26.6104 73.75 26.6516 73.4265 26.4622 73.2279Z" fill="#7F9DC1"/>
<path d="M27.0631 71.516L24.705 69.0428C24.5934 68.9258 24.3147 69.0001 24.1009 69.2039C23.8872 69.4078 23.7996 69.6826 23.9112 69.7996L26.2852 72.2895C26.3968 72.4065 26.6755 72.3321 26.8892 72.1283C27.103 71.9245 27.1906 71.6497 27.0631 71.516Z" fill="#7F9DC1"/>
<path d="M27.664 69.8041L26.4512 68.5321C26.3939 68.472 26.1616 68.595 25.9478 68.7988C25.7341 69.0027 25.6001 69.2288 25.6575 69.289L26.8784 70.5695C26.9358 70.6296 27.1681 70.5066 27.3818 70.3028C27.5956 70.099 27.7295 69.8728 27.664 69.8041Z" fill="#7F9DC1"/>
<path d="M31.515 46.6082L25.1455 39.928C24.8441 39.6119 24.253 39.6585 23.8644 40.0291C23.4758 40.3997 23.401 40.9878 23.7024 41.3039L30.1148 48.0291C30.4162 48.3452 31.0072 48.2986 31.3959 47.928C31.7845 47.5575 31.8593 46.9693 31.515 46.6082Z" fill="#7F9DC1"/>
<path d="M32.6074 43.4959L28.3203 38.9996C28.1174 38.7869 27.6108 38.922 27.2221 39.2926C26.8335 39.6631 26.6744 40.1628 26.8772 40.3756L31.1932 44.9021C31.3961 45.1149 31.9028 44.9797 32.2914 44.6092C32.68 44.2386 32.8392 43.739 32.6074 43.4959Z" fill="#7F9DC1"/>
<path d="M33.6999 40.3836L31.4951 38.0712C31.3908 37.9618 30.9685 38.1855 30.5799 38.556C30.1912 38.9266 29.9477 39.3377 30.052 39.4472L32.2717 41.7751C32.376 41.8845 32.7983 41.6608 33.1869 41.2903C33.5755 40.9197 33.8191 40.5086 33.6999 40.3836Z" fill="#7F9DC1"/>
</svg>
